<svg xmlns="http://www.w3.org/2000/svg" viewBox="0 0 64 64">
  <style>
    .bg{ fill:#1D222B; }
    .hub{ fill:#1D222B; }
    @media (prefers-color-scheme: light){
      .bg{ fill:#FFFFFF; }
      .hub{ fill:#FFFFFF; }
    }
  </style>
  <rect class="bg" width="64" height="64" rx="14"/>
  <path d="M32,32 L32.000,10.000 A22,22 0 0,1 51.053,21.000 Z" fill="#4FA8A0"/>
  <path d="M32,32 L51.053,21.000 A22,22 0 0,1 51.053,43.000 Z" fill="#D1A83F"/>
  <path d="M32,32 L51.053,43.000 A22,22 0 0,1 32.000,54.000 Z" fill="#A08CD8"/>
  <path d="M32,32 L32.000,54.000 A22,22 0 0,1 12.947,43.000 Z" fill="#C0553C"/>
  <path d="M32,32 L12.947,43.000 A22,22 0 0,1 12.947,21.000 Z" fill="#6E82D9"/>
  <path d="M32,32 L12.947,21.000 A22,22 0 0,1 32.000,10.000 Z" fill="#C15C8E"/>
  <circle class="hub" cx="32" cy="32" r="5.5"/>
</svg>
